<?xml version="1.0" encoding="UTF-8"?>
<svg version="1.1" xmlns="http://www.w3.org/2000/svg" width="820" height="985">
<path d="M0 0 C270.6 0 541.2 0 820 0 C820 325.05 820 650.1 820 985 C549.4 985 278.8 985 0 985 C0 659.95 0 334.9 0 0 Z " fill="#F5F5F5" transform="translate(0,0)"/>
<path d="M0 0 C0.98801628 -0.00327219 1.97603256 -0.00654439 2.99398872 -0.00991574 C4.62960845 -0.0076903 4.62960845 -0.0076903 6.298271 -0.00541991 C8.03720466 -0.00894826 8.03720466 -0.00894826 9.8112683 -0.01254788 C13.04866947 -0.01808381 16.28603688 -0.01910822 19.52344156 -0.01827047 C23.03816659 -0.01843965 26.55288265 -0.0243422 30.06760323 -0.02951133 C37.04742725 -0.03885033 44.02724493 -0.04276156 51.00707442 -0.0450303 C59.36389358 -0.04798898 67.7207043 -0.05668438 76.07751904 -0.06544458 C96.2779688 -0.08630322 116.47842004 -0.09676081 136.67887806 -0.10557419 C146.23152777 -0.10977847 155.78417685 -0.11500074 165.33682602 -0.12025872 C198.02446067 -0.13814969 230.7120955 -0.15314677 263.39973432 -0.16057891 C265.45242468 -0.16105367 267.50511504 -0.16152956 269.55780541 -0.16200657 C271.08475807 -0.16236113 271.08475807 -0.16236113 272.64255825 -0.16272286 C277.80025328 -0.16392408 282.9579483 -0.16513952 288.11564332 -0.16636485 C289.65099436 -0.16672507 289.65099436 -0.16672507 291.21736258 -0.16709258 C324.41365357 -0.17498781 357.60990885 -0.19842387 390.80618425 -0.23092079 C425.88767531 -0.26520064 460.96914548 -0.28492831 496.05065358 -0.28822315 C499.90006863 -0.2886407 503.74948367 -0.28912027 507.59889871 -0.28964633 C508.54676105 -0.28976952 509.4946234 -0.28989271 510.47120884 -0.29001964 C525.74013225 -0.29235391 541.00901426 -0.30802652 556.2779229 -0.32848817 C571.6189493 -0.34872068 586.95992586 -0.35423568 602.30096313 -0.34471754 C611.41978676 -0.3394926 620.53844474 -0.34542677 629.65724462 -0.36725221 C635.74569666 -0.38072583 641.83403425 -0.37971386 647.92248735 -0.36685025 C651.39341295 -0.35993061 654.86402107 -0.3593619 658.33491876 -0.37641034 C662.07304647 -0.39141741 665.81033276 -0.38193297 669.54843885 -0.36618346 C670.62714617 -0.37640567 671.70585349 -0.38662787 672.81724891 -0.39715984 C681.32143871 -0.31857718 687.40054634 1.79220379 693.48266298 7.87230092 C694.22135621 8.60116002 694.96004945 9.33001912 695.72112733 10.08096486 C696.50116624 10.87067174 697.28120515 11.66037862 698.0848816 12.47401601 C698.92979158 13.313523 699.77470155 14.15302999 700.64521486 15.01797658 C702.94371772 17.3061667 705.23309333 19.60300921 707.51814562 21.90461856 C709.91938207 24.31978388 712.33084638 26.72470112 714.74081117 29.13115102 C718.78327381 33.17091849 722.81760853 37.21866478 726.84708863 41.27137929 C731.4979991 45.94892213 736.16124475 50.61388106 740.83135092 55.27225322 C745.33624084 59.76634639 749.83257805 64.26890278 754.32499963 68.7754572 C756.23171084 70.68790904 758.14128354 72.59743349 760.05324441 74.50463659 C762.72226344 77.17074427 765.38137196 79.8463565 768.0380066 82.52479726 C769.2232467 83.70328489 769.2232467 83.70328489 770.43243104 84.90558034 C775.79912127 90.34562901 779.62903985 94.9987242 779.86295778 102.94130117 C779.62436955 109.88592276 777.15216302 113.38485185 772.23795778 118.12880117 C771.07372255 119.00834742 769.90258651 119.87880271 768.72623903 120.74208242 C762.12505449 125.89368539 758.12095991 130.23585103 756.99577028 138.78895742 C756.49020549 145.28993084 756.39397453 151.79648208 756.32438356 158.31483632 C756.19690261 163.94056327 755.65105303 169.48140102 754.98795778 175.06630117 C754.86791383 176.09714833 754.74786988 177.1279955 754.62418824 178.19008046 C752.52485364 194.97059004 749.01965897 211.65620142 745.23795778 228.12880117 C744.90090822 229.60691274 744.90090822 229.60691274 744.55704957 231.11488515 C740.50882799 248.71062054 735.83656598 265.95521829 730.23795778 283.12880117 C729.76579835 284.58274282 729.76579835 284.58274282 729.28410035 286.06605703 C709.009021 347.7536327 678.24927468 406.56693704 635.90202028 455.99208242 C633.39200047 458.92828078 630.96866762 461.92892636 628.55045778 464.94130117 C625.27978434 468.96405459 621.83833839 472.64494421 618.11686403 476.24989492 C616.31343903 478.05331992 614.6851928 479.92274231 613.05045778 481.87880117 C609.36990157 486.16715564 605.24753721 489.90566009 601.07169801 493.69935781 C597.99601683 496.49539138 595.00553424 499.3282995 592.11295778 502.31630117 C588.40139109 506.08199487 584.38008456 509.36301964 580.25748903 512.66786367 C578.17621696 514.36411386 576.14008968 516.06977248 574.12467653 517.83973867 C565.02500599 525.83085442 555.48857344 533.1265252 545.73112184 540.29579335 C543.39140659 542.01598353 541.06037707 543.74736318 538.73014528 545.48036367 C527.2648812 553.946017 515.35415068 561.63136974 503.23795778 569.12880117 C502.55668824 569.55113027 501.87541871 569.97345937 501.17350465 570.40858632 C496.89847357 573.04620408 492.58189508 575.60648209 488.23795778 578.12880117 C487.04807252 578.82126943 487.04807252 578.82126943 485.83414918 579.52772695 C444.32284702 603.5826755 400.76508596 624.28523152 355.51774293 640.31483632 C352.95360564 641.23032505 350.39832844 642.16832153 347.84342653 643.10926992 C320.78567536 653.06496655 293.34577217 661.7009695 265.39811403 668.80067617 C260.714775 669.99245339 256.07074911 671.29794505 251.42545778 672.62880117 C240.84883081 675.63121421 230.11878274 678.00200766 219.39445192 680.41053945 C217.30235348 680.88659743 215.21289698 681.3744297 213.12638551 681.87440664 C204.4479017 683.9450201 195.7190104 685.52622852 186.92545778 687.00380117 C185.40160318 687.26244881 183.87775897 687.5211576 182.35392457 687.77992421 C171.76390831 689.57037421 161.16175096 691.28188863 150.55045778 692.94130117 C149.88009492 693.04625905 149.20973207 693.15121694 148.51905519 693.25935537 C120.35535938 697.6558136 120.35535938 697.6558136 112.23795778 693.12880117 C103.12713916 685.97030083 100.82375701 673.90330965 97.75748903 663.30458242 C96.4416599 658.76876359 95.00619262 654.28789453 93.48795778 649.81630117 C90.1384577 639.92057306 86.94893952 629.97392426 83.75260621 620.02797109 C79.31163156 606.17719717 79.31163156 606.17719717 74.36295778 592.50380117 C71.87464543 585.94384611 69.57805051 579.34279148 67.40592653 572.67176992 C66.64787177 570.37225263 65.86037797 568.08215485 65.03873903 565.80458242 C62.28512876 558.10413546 60.76523853 552.40062701 63.80045778 544.50380117 C66.4643388 539.05367004 70.19878061 535.26995134 75.90836793 533.12611562 C79.44379355 532.06714703 82.83282327 531.48661108 86.48795778 530.98036367 C87.17429796 530.88315023 87.86063813 530.78593679 88.5677765 530.68577749 C90.03222824 530.47841802 91.49699649 530.27328351 92.96204835 530.07020742 C96.81786108 529.53415654 100.67058642 528.97697331 104.52311403 528.41786367 C105.28390764 528.30750783 106.04470124 528.197152 106.82854921 528.08345205 C115.42030761 526.82606175 123.94771614 525.27895667 132.47526246 523.64686757 C135.49911649 523.07982814 138.52776584 522.54583539 141.55827028 522.01551992 C156.0282275 519.4576404 170.26135455 516.294592 184.52311403 512.76161367 C190.21747885 511.35747975 195.92717926 510.10206808 201.67545778 508.94130117 C208.58960274 507.53072798 215.32269019 505.77977709 222.08707887 503.75770742 C225.69865895 502.70169944 229.32826203 501.71085722 232.95499879 500.70839101 C252.02248452 495.42656303 270.84680615 489.80483834 289.39811403 482.91005117 C293.19431695 481.50063864 297.00845592 480.18436549 300.86295778 478.94130117 C305.6361325 477.38215527 310.24596743 475.54204704 314.86295778 473.57020742 C317.80779152 472.31251801 320.76273366 471.08552306 323.72233278 469.86317617 C330.69474581 466.96033394 337.59781425 463.90851147 344.48795778 460.81630117 C345.12713136 460.52956533 345.76630494 460.24282949 346.42484742 459.94740468 C355.39794713 455.91569565 364.31021522 451.80878411 373.03873903 447.26747304 C375.70181839 445.88863177 378.37645955 444.53321816 381.05045778 443.17567617 C414.29719541 426.20846373 446.54214574 406.09139197 474.69743043 381.45887929 C476.24756096 380.12050986 477.82159667 378.81705855 479.40592653 377.51942617 C487.00136612 371.2495845 494.06671118 364.5096439 501.05045778 357.56630117 C501.92186403 356.70407949 502.79327028 355.84185781 503.69108278 354.9535082 C509.63012348 348.98621864 514.97695982 342.69495548 520.23795778 336.12880117 C521.81833246 334.2929168 523.40100852 332.45900542 524.98795778 330.62880117 C541.8913087 310.32384712 554.92931025 286.89844545 566.23795778 263.12880117 C567.08100465 261.38856679 567.08100465 261.38856679 567.94108278 259.61317617 C575.9601839 242.07690007 581.08707776 223.18896117 585.11295778 204.37880117 C585.38680299 203.11576162 585.66064821 201.85272207 585.94279176 200.55140859 C587.6395614 192.26643755 588.81177185 183.98443349 589.83219606 175.59266835 C589.96847917 174.48668294 590.10476228 173.38069753 590.24517518 172.24119741 C590.57807339 169.53730085 590.90895423 166.8331739 591.23795778 164.12880117 C589.97987762 164.13069977 588.72179747 164.13259837 587.42559367 164.13455451 C531.98851309 164.21788742 476.55142653 164.29502795 421.11430055 164.34051687 C419.85565187 164.34155229 419.85565187 164.34155229 418.57157595 164.34260864 C400.33633387 164.35757267 382.10109111 164.37142365 363.86584732 164.38412781 C354.92347774 164.39036458 345.98110834 164.39684733 337.03873903 164.40345937 C336.14885885 164.40411317 335.25897868 164.40476696 334.34213244 164.40544057 C305.49094607 164.42675287 276.63980862 164.46431356 247.78865189 164.51028727 C218.14395848 164.55743975 188.49929214 164.58822595 158.85456186 164.59837612 C154.66885844 164.59981692 150.4831551 164.60144511 146.29745179 164.60318738 C145.47363349 164.6035245 144.64981519 164.60386161 143.8010327 164.60420894 C130.53199494 164.6101209 117.26304083 164.63332024 103.9940372 164.66296134 C90.65893197 164.69238201 77.32390979 164.70364498 63.98877323 164.69630805 C56.06300717 164.69250094 48.13754473 164.70268105 40.21183341 164.73278888 C34.29767919 164.75372322 28.38373565 164.74862014 22.46955776 164.73329564 C20.07372987 164.73117681 17.67787664 164.73757356 15.28209889 164.75321708 C12.03099007 164.77321607 8.78137807 164.76251023 5.53029329 164.74404031 C4.59511951 164.75717538 3.65994574 164.77031045 2.69643337 164.78384355 C-4.72633973 164.68822711 -9.39075892 162.20581686 -14.82063597 157.24989492 C-15.27567504 156.69430898 -15.7307141 156.13872304 -16.19954222 155.56630117 C-16.67262816 155.0081371 -17.1457141 154.44997304 -17.63313597 153.87489492 C-19.90707816 150.35775942 -19.89112092 146.74387995 -19.90921324 142.64569265 C-19.91636855 141.53122762 -19.92352385 140.41676259 -19.93089598 139.2685259 C-19.93358489 138.05025609 -19.93627379 136.83198629 -19.93904418 135.57679921 C-19.94561538 134.29023427 -19.95218657 133.00366933 -19.9589569 131.67811757 C-19.97995211 127.41559761 -19.99035398 123.15307747 -20.00032347 118.89051992 C-20.00437251 117.42089807 -20.00848948 115.95127641 -20.01267356 114.48165494 C-20.03171405 107.57733161 -20.04594833 100.6730189 -20.05428553 93.76867437 C-20.06405865 85.80749776 -20.09038466 77.84659913 -20.13078642 69.88552046 C-20.16097093 63.72571872 -20.17575654 57.56599658 -20.17906654 51.40612233 C-20.18141406 47.72985867 -20.19033547 44.05389237 -20.21552771 40.37770826 C-20.24319264 36.27462365 -20.23897022 32.17215872 -20.23201293 28.06898671 C-20.24482299 26.8567896 -20.25763304 25.64459249 -20.27083129 24.39566213 C-20.22166962 16.44544744 -19.25909465 11.87420473 -13.72688597 5.94911367 C-13.05786254 5.38966054 -12.3888391 4.83020742 -11.69954222 4.25380117 C-11.02794066 3.67887929 -10.3563391 3.10395742 -9.66438597 2.51161367 C-6.49225758 0.20579549 -3.79627916 0.00328588 0 0 Z " fill="#020202" transform="translate(30.762042224407196,265.87119883298874)"/>
<path d="M0 0 C60.83409524 -1.0166706 121.66807316 -1.98442603 182.50836182 -2.54058838 C183.41217858 -2.5488718 184.31599535 -2.55715523 185.2472005 -2.56568966 C204.90069581 -2.74536252 224.55428356 -2.9115592 244.20800911 -3.06391977 C253.84946792 -3.13874458 263.49090174 -3.21653994 273.13232422 -3.29589844 C274.0916419 -3.30374398 275.05095958 -3.31158952 276.03934749 -3.31967281 C307.0041964 -3.57429868 337.96237421 -4.02413329 368.92319917 -4.57783325 C400.80281234 -5.1469143 432.67875211 -5.51382894 464.56335755 -5.6348994 C469.09078327 -5.65218272 473.61819666 -5.67172074 478.14560699 -5.69263458 C479.03645998 -5.69667996 479.92731296 -5.70072534 480.84516148 -5.70489331 C493.30224954 -5.76650524 505.75034505 -5.96725908 518.20361104 -6.27813384 C539.07056918 -6.79900654 559.92280815 -7.08298793 580.79589844 -6.81152344 C581.5715834 -6.80187509 582.34726835 -6.79222674 583.14645892 -6.78228601 C620.09718489 -6.28052313 653.10896815 -4.17016198 680.52398749 23.76727156 C690.44548537 34.33397983 701.22744851 46.53419118 707 60 C706.58178832 64.44316331 703.70547899 66.65520394 700.69140625 69.70703125 C696.12820895 75.89316709 696.57488348 83.69116081 696.1875 91.0625 C695.44082394 103.1771553 694.09776278 115.15789247 692.5 127.1875 C692.39231293 128.00896515 692.28462585 128.8304303 692.17367554 129.67678833 C691.09410236 137.86877125 689.91457924 145.95359265 688 154 C687.85466036 155.37299905 687.72782505 156.74816413 687.625 158.125 C687.16502864 162.69352909 686.01795568 166.97412933 684.78466797 171.38989258 C683.38220582 176.45081919 682.16195936 181.53886559 680.98193359 186.65600586 C673.99753449 216.77651823 663.96322627 246.14995357 651.97851562 274.6328125 C651.10154609 276.75434359 650.26480985 278.884073 649.453125 281.03125 C645.80498083 290.62299985 641.2459614 299.53349691 636.33984375 308.53515625 C635.02514119 310.95374901 633.72986187 313.38191116 632.4375 315.8125 C621.73560388 335.78682612 609.69293576 354.93979414 596 373 C595.51015625 373.64678711 595.0203125 374.29357422 594.515625 374.95996094 C588.67294635 382.62847667 582.52699262 389.90002711 576 397 C574.82865335 398.3292238 573.66175407 399.66238407 572.5 401 C563.22697359 411.61293619 553.81608986 422.04919265 543.0703125 431.20703125 C540.6172589 433.33146824 538.25296853 435.54188637 535.875 437.75 C530.6671532 442.49875287 525.22300397 446.85233192 519.6484375 451.16015625 C517.22936232 453.03096799 514.84147526 454.93228548 512.4765625 456.87109375 C491.13407008 474.34135655 467.75538281 489.06374486 444 503 C442.73784668 503.74540039 442.73784668 503.74540039 441.45019531 504.50585938 C415.32299226 519.8701256 387.93927889 533.27333749 360 545 C359.05842041 545.39960937 358.11684082 545.79921875 357.14672852 546.2109375 C349.47633448 549.44511273 341.72667163 552.4399724 333.9375 555.375 C332.65257226 555.86022878 331.36766034 556.34549948 330.08276367 556.83081055 C326.38993476 558.22434903 322.69515084 559.61263032 319 561 C317.56672363 561.53923096 317.56672363 561.53923096 316.10449219 562.08935547 C305.60603397 566.03173904 295.0544183 569.7593789 284.38818359 573.22314453 C282.75457611 573.75454292 281.12213795 574.28954586 279.49072266 574.82763672 C265.12241796 579.56482651 250.64334062 583.69956578 235.99609375 587.48309326 C233.87935742 588.0312415 231.76386006 588.58401148 229.6484375 589.13720703 C198.67190715 597.21892843 167.42932297 604.12508679 135.875 609.5625 C134.98296875 609.71895996 134.0909375 609.87541992 133.171875 610.03662109 C127.41457714 610.9717308 121.82755473 611.16002969 116 611 C112 599 112 599 111.39379883 597.16381836 C109.02158004 589.99911707 106.55543347 582.86664288 104.10046387 575.73001099 C101.973471 569.54171389 99.85610941 563.35011185 97.73858643 557.15856934 C97.04643325 555.13570435 96.35315573 553.11322807 95.65966797 551.09082031 C94.51654738 547.75023134 93.38164584 544.40699034 92.25 541.0625 C91.91524658 540.08788818 91.58049316 539.11327637 91.2355957 538.10913086 C90.93613037 537.21846924 90.63666504 536.32780762 90.328125 535.41015625 C90.0693457 534.64840088 89.81056641 533.88664551 89.54394531 533.10180664 C89 531 89 531 89 527 C90.49273437 526.7666394 90.49273437 526.7666394 92.015625 526.52856445 C110.64077853 523.60723755 129.18204803 520.57356436 147.60058594 516.51855469 C151.05742528 515.77147219 154.52714787 515.10618581 158 514.4375 C164.8910518 513.06535437 171.68655745 511.38132942 178.49023438 509.63623047 C181.34950357 508.91140017 184.21339695 508.20685015 187.078125 507.50390625 C194.39449456 505.70479898 201.70109794 503.86869412 209 502 C209.64447083 501.835 210.28894165 501.67 210.95294189 501.5 C231.64234216 496.1852208 251.89622037 489.91830865 272.09899902 482.98414612 C276.3066638 481.5477702 280.5335842 480.22170619 284.796875 478.95703125 C289.91681581 477.40329883 294.78609661 475.51831299 299.69921875 473.40625 C303.53648365 471.77143892 307.40494355 470.22680463 311.28125 468.6875 C336.30773285 458.70523046 360.93916682 448.19618269 384.62792969 435.28759766 C387.20495614 433.88874653 389.79330121 432.51231051 392.3828125 431.13671875 C404.60775252 424.6050165 416.40141887 417.58542684 428 410 C429.60875 408.95585938 429.60875 408.95585938 431.25 407.890625 C452.55907933 393.87758914 472.64434475 378.45183639 491.48828125 361.265625 C493.55891909 359.39786458 495.65478881 357.57164153 497.765625 355.75 C502.1566174 351.91320057 506.31729275 347.87442494 510.4375 343.75 C511.18322266 343.00419678 511.92894531 342.25839355 512.69726562 341.48999023 C517.46193797 336.67590262 521.87584538 331.7773719 526.05078125 326.44140625 C527.99348071 324.00816545 530.05353451 321.76612365 532.1875 319.5 C583.06284105 263.40440656 612.45693923 182.18619861 613.3125 107.125 C613.34150391 106.25359375 613.37050781 105.3821875 613.40039062 104.484375 C613.45895304 98.4839802 612.4912479 93.96366009 609 89 C607.08191387 87.12018806 607.08191387 87.12018806 604.9375 86.0625 C603.93009766 85.49208984 603.93009766 85.49208984 602.90234375 84.91015625 C599.75874152 83.40613301 597.23149096 82.87442385 593.79301101 82.86938947 C592.92908564 82.86570876 592.06516028 82.86202805 591.17505535 82.85823581 C590.22353782 82.85925847 589.27202029 82.86028114 588.29166889 82.8613348 C586.7720054 82.85707147 586.7720054 82.85707147 585.22164163 82.85272202 C581.79336767 82.8443349 578.36512733 82.84310367 574.93684387 82.84178162 C572.46762327 82.837219 569.99840343 82.83221942 567.52918452 82.82681805 C562.14341836 82.81604494 556.7576609 82.80838311 551.37188721 82.80341911 C543.36338603 82.79602113 535.35490127 82.78293986 527.34640975 82.76867336 C513.87616037 82.74483916 500.40590808 82.72564495 486.93564796 82.70907402 C473.59393731 82.69264615 460.2522321 82.67416893 446.91052818 82.65294075 C446.08169903 82.65162314 445.25286987 82.65030554 444.39892468 82.648948 C440.18990465 82.64224613 435.98088468 82.63550751 431.77186473 82.62875474 C401.94142096 82.58096222 372.11097211 82.53778567 342.28051758 82.49731445 C313.29646434 82.45798101 284.31241531 82.41656248 255.32836914 82.37231445 C254.43531828 82.37095192 253.54226743 82.36958939 252.62215442 82.36818558 C243.65396007 82.35450047 234.68576578 82.34077291 225.71757154 82.32701423 C207.44751287 82.29898594 189.17745377 82.2712411 170.90739441 82.2436676 C170.0673239 82.2423994 169.2272534 82.2411312 168.36172621 82.23982458 C112.24115758 82.15513556 56.12057924 82.07728136 0 82 C0 54.94 0 27.88 0 0 Z " fill="#F4F4F4" transform="translate(52,307)"/>
<path d="M0 0 C0.88179663 -0.00265183 1.76359326 -0.00530365 2.672111 -0.00803584 C5.65379562 -0.01575073 8.6354392 -0.01628885 11.61713314 -0.01688576 C13.76574198 -0.02089894 15.91435006 -0.02533692 18.06295723 -0.03016531 C23.98849402 -0.04215279 29.91402266 -0.0477843 35.83956921 -0.05234647 C42.22218591 -0.05829434 48.60479281 -0.06990622 54.98740292 -0.08063698 C69.68308381 -0.10401944 84.37876679 -0.11857107 99.07446066 -0.13086639 C104.15869711 -0.13512058 109.24293319 -0.1396863 114.32716918 -0.14444971 C141.3567229 -0.16971009 168.38627722 -0.1917596 195.41584015 -0.20417786 C201.67922181 -0.20709922 207.94260345 -0.21006673 214.20598507 -0.21308327 C214.98413671 -0.21345418 215.76228834 -0.21382509 216.56402033 -0.21420723 C241.79205209 -0.22636203 267.02001408 -0.25730448 292.24801307 -0.29900479 C318.18097315 -0.34179221 344.11389637 -0.36841886 370.04689271 -0.37365257 C373.7097811 -0.37439302 377.37266942 -0.3753037 381.03555775 -0.37631035 C382.11689398 -0.37659627 382.11689398 -0.37659627 383.22007538 -0.37688797 C394.82136303 -0.38040146 406.4225633 -0.400699 418.02381886 -0.42710699 C429.68613797 -0.45325357 441.34833221 -0.4605639 453.01067901 -0.4500057 C459.32885107 -0.44481134 465.64674525 -0.44775685 471.96487713 -0.47247124 C477.74924266 -0.49490907 483.53312984 -0.49426588 489.31750344 -0.47526737 C491.4097782 -0.47245973 493.50208502 -0.47810809 495.59430809 -0.4930803 C516.0876794 -0.63076298 516.0876794 -0.63076298 523.50652218 5.13701439 C528.076369 9.70686121 529.75173006 14.33163699 529.77394772 20.7336483 C529.78247768 21.84804283 529.79100765 22.96243736 529.7997961 24.11060143 C529.79888973 25.32370491 529.79798336 26.5368084 529.79704952 27.78667259 C529.80712536 29.71432961 529.80712536 29.71432961 529.81740475 31.68092918 C529.83504271 35.1996722 529.83975922 38.71831789 529.84103632 42.23710084 C529.84245988 44.43811057 529.84673339 46.63909572 529.85203075 48.84009933 C529.87052469 56.52624515 529.87870229 64.21232167 529.87712765 71.898489 C529.87592685 79.05071709 529.89701853 86.20264312 529.92861497 93.3547948 C529.95481314 99.50530259 529.96549345 105.65571195 529.96421683 111.80627507 C529.96370817 115.47527232 529.96933732 119.14400109 529.99057293 122.8129425 C530.01363158 126.90856068 530.00441289 131.00350719 529.99236202 135.09917259 C530.00360104 136.30620338 530.01484005 137.51323418 530.02641964 138.75684166 C529.96809958 146.562908 529.04352618 152.11910194 523.72527218 158.16045189 C523.15808468 158.60646751 522.59089718 159.05248314 522.00652218 159.51201439 C521.43933468 159.97349876 520.87214718 160.43498314 520.28777218 160.91045189 C515.54566228 164.17585213 511.62729067 164.42122745 505.93126202 164.38869667 C505.05277747 164.39160355 504.17429292 164.39451043 503.26918763 164.3975054 C500.30475321 164.40484509 497.3405232 164.39784355 494.37609005 164.39098167 C492.2375669 164.39328455 490.09904454 164.3964599 487.96052384 164.40043616 C482.06756798 164.40881688 476.17467655 164.40464403 470.2817204 164.39846373 C463.93256227 164.39395349 457.58341551 164.40091595 451.23425961 164.40642357 C439.50866701 164.41481956 427.78309745 164.41406835 416.05750372 164.40860063 C405.22368688 164.40357348 394.3898776 164.40225426 383.55605984 164.40464592 C382.83798182 164.40479869 382.11990379 164.40495146 381.38006583 164.40510886 C378.46525535 164.40573152 375.55044487 164.40636832 372.63563439 164.40702839 C345.27678914 164.41315007 317.91795703 164.40759411 290.5591138 164.39683459 C266.24974679 164.38734704 241.94040073 164.38818882 217.6310339 164.39775658 C190.3289035 164.40846627 163.02678473 164.4127119 135.72465253 164.40653205 C132.81385088 164.40589061 129.90304923 164.40526493 126.99224758 164.40464592 C126.27551787 164.40448777 125.55878815 164.40432961 124.82033936 164.40416666 C113.99581823 164.4018915 103.17130551 164.40455277 92.34678555 164.40960503 C80.03596638 164.4153223 67.72517548 164.41370414 55.41435876 164.40304354 C49.13094882 164.39778205 42.84758143 164.3957382 36.56417179 164.40234184 C30.81400217 164.4082937 25.06391461 164.4050387 19.31375244 164.39438674 C17.23164467 164.39214943 15.14952999 164.39329638 13.06742665 164.39813831 C10.23990117 164.40421016 7.41265764 164.39799132 4.5851469 164.38869667 C3.77465112 164.393379 2.96415533 164.39806134 2.12909907 164.40288556 C-4.40293737 164.35990188 -10.15557451 163.66564348 -15.74347782 160.01201439 C-20.8845148 154.63729391 -23.61030218 148.38112577 -23.63391972 140.93274498 C-23.64248493 139.3157621 -23.64248493 139.3157621 -23.65122318 137.6661129 C-23.65234104 136.48322182 -23.6534589 135.30033073 -23.65461063 134.08159447 C-23.66205799 132.21289696 -23.66205799 132.21289696 -23.6696558 130.30644798 C-23.68176749 126.88676038 -23.6892238 123.46713396 -23.69366646 120.04743218 C-23.69659933 117.90908943 -23.70070463 115.77075202 -23.70517063 113.63241196 C-23.71884598 106.93684884 -23.7285115 100.24129795 -23.73237252 93.54572183 C-23.73684844 85.82683555 -23.75437434 78.10812677 -23.78337312 70.38929445 C-23.80502739 64.41718016 -23.81507886 58.44511567 -23.81641364 52.47296256 C-23.81745933 48.90904997 -23.82331609 45.34530422 -23.84123325 41.78143311 C-23.86085625 37.80070023 -23.85641003 33.82018695 -23.84992313 29.83940697 C-23.85913792 28.66663704 -23.8683527 27.49386711 -23.87784672 26.2855587 C-23.83973386 18.8117852 -23.42084951 12.52576531 -18.33722782 6.64092064 C-17.56379032 6.00025658 -16.79035282 5.35959251 -15.99347782 4.69951439 C-14.83332157 3.71144798 -14.83332157 3.71144798 -13.64972782 2.70342064 C-9.37270137 -0.40362212 -5.06091796 -0.00733233 0 0 Z " fill="#020202" transform="translate(136.4934778213501,40.862985610961914)"/>
<path d="M0 0 C155.76 0 311.52 0 472 0 C472 27.06 472 54.12 472 82 C316.24 82 160.48 82 0 82 C0 54.94 0 27.88 0 0 Z " fill="#F4F4F4" transform="translate(154,82)"/>
</svg>
